<svg width="262" height="248" viewBox="0 0 262 248" fill="none" xmlns="http://www.w3.org/2000/svg">
<path fill-rule="evenodd" clip-rule="evenodd" d="M30 0C13.4315 0 0 13.4315 0 30V218C0 234.569 13.4315 248 30 248H109.951L181.501 66.6636H199.345L242 181.637H225.686L216.169 155.922H164.507L128.374 248H232C248.569 248 262 234.569 262 218V30C262 13.4315 248.569 0 232 0H30ZM96.3555 73.134C86.9521 68.378 75.7926 66 62.8771 66H26V181.637H62.8771C75.7926 181.637 86.9521 179.37 96.3555 174.835C105.872 170.19 113.123 163.553 118.108 154.926C123.206 146.188 125.755 135.902 125.755 124.067C125.755 112.233 123.206 101.947 118.108 93.2087C113.123 84.471 105.872 77.7794 96.3555 73.134ZM97.8849 157.415C89.8411 165.268 78.1718 169.194 62.8771 169.194H41.4646V78.2771H62.8771C78.0585 78.2771 89.6711 82.3142 97.715 90.3883C105.872 98.4625 109.951 109.689 109.951 124.067C109.951 138.335 105.929 149.451 97.8849 157.415ZM190.338 85.2452L211.751 143.644H168.925L190.338 85.2452Z" fill="#FFCA2C"/>
</svg>
